<?xml version="1.0" encoding="utf-8"?>
<!-- Generator: Adobe Illustrator 25.2.0, SVG Export Plug-In . SVG Version: 6.00 Build 0)  -->
<svg version="1.1" id="Capa_1" xmlns="http://www.w3.org/2000/svg" xmlns:xlink="http://www.w3.org/1999/xlink" x="0px" y="0px"
	 viewBox="0 0 48 48" style="enable-background:new 0 0 48 48;" xml:space="preserve">
<style type="text/css">
	.st0{fill:#FBEED9;}
</style>
<path class="st0" d="M36.6,46.8H11.3c-5.7,0-10.1-4.5-10.1-10.1v-2.6c0-1.3,1.1-2.6,2.6-2.6s2.6,1.1,2.6,2.6v2.6
	c0,2.9,2.2,5.1,5.1,5.1h25.3c2.9,0,5.1-2.2,5.1-5.1v-2.6c0-1.3,1.1-2.6,2.6-2.6c1.5,0,2.6,1.1,2.6,2.6v2.6
	C46.8,42.4,42.4,46.8,36.6,46.8z M24,36.7c-0.4,0-0.6-0.1-1-0.2c-0.2-0.1-0.5-0.2-0.7-0.5l0,0l0,0l0,0l0,0l0,0l0,0l0,0
	c0,0,0,0-0.1-0.1l0,0l0,0l0,0l0,0L12,25.7c-1-1-1-2.6,0-3.5c1-1,2.6-1,3.5,0l5.8,5.8V3.7c0-1.3,1.1-2.6,2.6-2.6s2.6,1.1,2.6,2.6V28
	l5.8-5.8c1-1,2.6-1,3.5,0c1,1,1,2.6,0,3.5L25.8,35.8l0,0c-0.2,0.2-0.5,0.4-0.9,0.6C24.7,36.7,24.3,36.7,24,36.7z"/>
</svg>
