<?xml version="1.0" encoding="utf-8"?>
<!-- Generator: Adobe Illustrator 25.2.0, SVG Export Plug-In . SVG Version: 6.00 Build 0)  -->
<svg version="1.1" id="Capa_1" xmlns="http://www.w3.org/2000/svg" xmlns:xlink="http://www.w3.org/1999/xlink" x="0px" y="0px"
	 viewBox="0 0 48 48" style="enable-background:new 0 0 48 48;" xml:space="preserve">
<style type="text/css">
	.st0{fill:#F1BF7B;}
</style>
<path class="st0" d="M34.4,42.7H13.6c-4.7,0-8.3-3.7-8.3-8.3v-2.1c0-1.1,0.9-2.1,2.1-2.1s2.1,0.9,2.1,2.1v2.1c0,2.4,1.8,4.2,4.2,4.2
	h20.8c2.4,0,4.2-1.8,4.2-4.2v-2.1c0-1.1,0.9-2.1,2.1-2.1s2.1,0.9,2.1,2.1v2.1C42.7,39.1,39.1,42.7,34.4,42.7z M24,34.4
	c-0.3,0-0.5-0.1-0.8-0.2c-0.2-0.1-0.4-0.2-0.6-0.4l0,0c0,0,0,0,0,0c0,0,0,0,0,0l0,0c0,0,0,0,0,0h0c0,0,0,0,0,0c0,0,0,0-0.1-0.1l0,0
	c0,0,0,0,0,0c0,0,0,0,0,0l0,0l-8.3-8.3c-0.8-0.8-0.8-2.1,0-2.9c0.8-0.8,2.1-0.8,2.9,0l4.8,4.8v-20c0-1.1,0.9-2.1,2.1-2.1
	s2.1,0.9,2.1,2.1v20l4.8-4.8c0.8-0.8,2.1-0.8,2.9,0s0.8,2.1,0,2.9l-8.3,8.3c0,0,0,0,0,0c-0.2,0.2-0.4,0.3-0.7,0.5
	C24.6,34.4,24.3,34.4,24,34.4z"/>
</svg>
