<?xml version="1.0" encoding="utf-8"?>
<!-- Generator: Adobe Illustrator 25.2.0, SVG Export Plug-In . SVG Version: 6.00 Build 0)  -->
<svg version="1.1" id="Facebook" xmlns="http://www.w3.org/2000/svg" xmlns:xlink="http://www.w3.org/1999/xlink" x="0px" y="0px"
	 viewBox="0 0 32 32" style="enable-background:new 0 0 32 32;" xml:space="preserve">
<style type="text/css">
	.st0{fill:#F1BF7B;}
	.st1{fill:#262626;}
</style>
<path class="st0" d="M5,0h22c2.8,0,5,2.2,5,5v22c0,2.8-2.2,5-5,5H5c-2.8,0-5-2.2-5-5V5C0,2.2,2.2,0,5,0z"/>
<path class="st1" d="M17.5,26v-9.1h3l0.4-3.6h-3.4v-2.3c0-1,0.3-1.7,1.7-1.7H21V6.1C20.1,6,19.2,6,18.4,6C15.8,6,14,7.7,14,10.7v2.6
	h-3v3.6h3V26H17.5z"/>
</svg>
