<?xml version="1.0" encoding="utf-8"?>
<!-- Generator: Adobe Illustrator 25.2.0, SVG Export Plug-In . SVG Version: 6.00 Build 0)  -->
<svg version="1.1" id="Instagram" xmlns="http://www.w3.org/2000/svg" xmlns:xlink="http://www.w3.org/1999/xlink" x="0px" y="0px"
	 viewBox="0 0 32 32" style="enable-background:new 0 0 32 32;" xml:space="preserve">
<style type="text/css">
	.st0{fill:#F1BF7B;}
	.st1{fill-rule:evenodd;clip-rule:evenodd;fill:#262626;}
</style>
<path class="st0" d="M5,0h22c2.8,0,5,2.2,5,5v22c0,2.8-2.2,5-5,5H5c-2.8,0-5-2.2-5-5V5C0,2.2,2.2,0,5,0z"/>
<path class="st1" d="M6,16c0-4,0-6,1-7.4C7.4,8,8,7.4,8.6,7C10,6,12,6,16,6s6,0,7.4,1c0.6,0.4,1.2,1,1.6,1.6C26,10,26,12,26,16
	s0,6-1,7.4c-0.4,0.6-1,1.2-1.6,1.6C22,26,20,26,16,26s-6,0-7.4-1c-0.6-0.4-1.2-1-1.6-1.6C6,22,6,20,6,16z M21.2,16
	c0,2.9-2.3,5.2-5.2,5.2c-2.9,0-5.2-2.3-5.2-5.2s2.3-5.2,5.2-5.2S21.2,13.1,21.2,16C21.2,16,21.2,16,21.2,16z M16,19.4
	c1.9,0,3.4-1.5,3.4-3.4s-1.5-3.4-3.4-3.4c-1.9,0-3.4,1.5-3.4,3.4C12.6,17.9,14.1,19.4,16,19.4z M21.4,11.8c0.7,0.1,1.3-0.4,1.3-1.1
	c0.1-0.7-0.4-1.3-1.1-1.3c-0.1,0-0.1,0-0.2,0c-0.7,0.1-1.2,0.7-1.1,1.3C20.3,11.3,20.8,11.7,21.4,11.8z"/>
</svg>
