<?xml version="1.0" encoding="utf-8"?>
<!-- Generator: Adobe Illustrator 25.2.0, SVG Export Plug-In . SVG Version: 6.00 Build 0)  -->
<svg version="1.1" id="Capa_1" xmlns="http://www.w3.org/2000/svg" xmlns:xlink="http://www.w3.org/1999/xlink" x="0px" y="0px"
	 viewBox="0 0 28.8 28.8" style="enable-background:new 0 0 28.8 28.8;" xml:space="preserve">
<style type="text/css">
	.st0{fill:#F1BF7B;}
</style>
<g id="Capa_2_1_">
	<g id="Capa_3">
		<path class="st0" d="M14.6,0C6.6-0.1,0.1,6.2,0,14.2s6.2,14.5,14.2,14.6c8,0.1,14.5-6.2,14.6-14.2c0-0.1,0-0.3,0-0.4
			C28.7,6.4,22.4,0.1,14.6,0z M23.4,22.7c0,0-0.1,0-0.1,0.1h-0.1h-0.1c0,0-0.1,0-0.1-0.1c-0.6-0.8-1.4-1.5-2.2-2
			c-1.9-1.2-4.1-1.8-6.3-1.8s-4.4,0.6-6.3,1.8c-0.9,0.5-1.6,1.2-2.2,2l-0.1,0.1H5.8H5.7c0,0-0.1,0-0.1-0.1c-2-2.2-3.2-5-3.2-8
			C2.2,7.9,7.6,2.4,14.3,2.4c6.7-0.1,12.2,5.3,12.3,12C26.6,17.5,25.4,20.4,23.4,22.7z"/>
		<path class="st0" d="M14.4,6c-1.4,0-2.6,0.6-3.6,1.6c-0.9,1-1.3,2.4-1.2,3.9c0.2,2.9,2.4,5.3,4.8,5.3s4.6-2.4,4.8-5.3
			c0.1-1.4-0.3-2.8-1.2-3.9C17,6.6,15.8,6,14.4,6z"/>
	</g>
</g>
</svg>
