<?xml version="1.0" encoding="utf-8"?>
<!-- Generator: Adobe Illustrator 25.2.0, SVG Export Plug-In . SVG Version: 6.00 Build 0)  -->
<svg version="1.1" id="Capa_1" xmlns="http://www.w3.org/2000/svg" xmlns:xlink="http://www.w3.org/1999/xlink" x="0px" y="0px"
	 viewBox="0 0 28.3 28.3" style="enable-background:new 0 0 28.3 28.3;" xml:space="preserve">
<style type="text/css">
	.st0{fill-rule:evenodd;clip-rule:evenodd;fill:#F1BF7B;}
	.st1{opacity:0.5;fill:#F7DBB1;enable-background:new    ;}
</style>
<g id="Capa_2_1_">
	<g id="Capa_1-2">
		<g>
			<path class="st0" d="M16.8,9.3c-1.8-1.8-4.6-2.1-6.7-0.7C9.2,9.2,8.5,10,8.1,11C7,13.7,8.3,16.9,11,18s5.9-0.2,7-2.9
				C18.8,13.1,18.4,10.8,16.8,9.3z M16.7,15.5c-1,1.5-2.7,2.2-4.5,1.9c-1.7-0.3-3.1-1.7-3.4-3.4c-0.2-0.8-0.1-1.7,0.2-2.5
				c0.9-2.2,3.4-3.3,5.7-2.4s3.3,3.4,2.4,5.7C17,14.9,16.9,15.2,16.7,15.5L16.7,15.5z"/>
			<path class="st0" d="M16.3,16.3c0.2-0.2,0.5-0.2,0.7,0l0,0l3.4,3.4c0.2,0.2,0.2,0.5,0,0.7s-0.5,0.2-0.7,0L16.3,17
				C16.2,16.8,16.2,16.5,16.3,16.3z"/>
		</g>
		<path class="st1" d="M14.1,28.3C6.3,28.3,0,21.9,0,14.1S6.3,0,14.1,0s14.1,6.3,14.1,14.1C28.3,21.9,21.9,28.3,14.1,28.3z
			 M14.1,0.8c-7.4,0-13.4,6-13.4,13.4s6,13.4,13.4,13.4s13.4-6,13.4-13.4S21.5,0.8,14.1,0.8z"/>
	</g>
</g>
</svg>
