<?xml version="1.0" encoding="utf-8"?>
<!-- Generator: Adobe Illustrator 25.2.0, SVG Export Plug-In . SVG Version: 6.00 Build 0)  -->
<svg version="1.1" id="Mail" xmlns="http://www.w3.org/2000/svg" xmlns:xlink="http://www.w3.org/1999/xlink" x="0px" y="0px"
	 viewBox="0 0 32 32" style="enable-background:new 0 0 32 32;" xml:space="preserve">
<style type="text/css">
	.st0{fill:#F1BF7B;}
	.st1{clip-path:url(#SVGID_2_);}
	.st2{fill:#262626;}
</style>
<path class="st0" d="M5,0h22c2.8,0,5,2.2,5,5v22c0,2.8-2.2,5-5,5H5c-2.8,0-5-2.2-5-5V5C0,2.2,2.2,0,5,0z"/>
<g>
	<defs>
		<rect id="SVGID_1_" x="4.7" y="7.1" width="22.1" height="18.1"/>
	</defs>
	<clipPath id="SVGID_2_">
		<use xlink:href="#SVGID_1_"  style="overflow:visible;"/>
	</clipPath>
	<g class="st1">
		<path class="st2" d="M23.7,8H8c-1.4,0-2.6,1.2-2.6,2.6v11.3c0,1.4,1.2,2.6,2.6,2.6h15.7c1.4,0,2.6-1.2,2.6-2.6V10.6
			C26.3,9.2,25.2,8,23.7,8z M23.1,12.3l-6.8,5.2c-0.3,0.2-0.7,0.2-0.9,0l-6.7-5.2c-0.1-0.1-0.1-0.1-0.2-0.2c0-0.1-0.1-0.2-0.1-0.3
			c0-0.1,0-0.2,0-0.3c0-0.1,0.1-0.2,0.1-0.3c0.1-0.1,0.1-0.1,0.2-0.2C8.8,11,8.9,11,9,11c0.1,0,0.2,0,0.3,0c0.1,0,0.2,0.1,0.3,0.1
			l6.3,4.9l6.3-4.9c0.2-0.1,0.4-0.2,0.6-0.1c0.2,0,0.4,0.1,0.5,0.3c0.1,0.2,0.2,0.3,0.1,0.5C23.3,12,23.2,12.2,23.1,12.3z"/>
	</g>
</g>
</svg>
