<?xml version="1.0" encoding="utf-8"?>
<!-- Generator: Adobe Illustrator 25.2.0, SVG Export Plug-In . SVG Version: 6.00 Build 0)  -->
<svg version="1.1" id="Capa_1" xmlns="http://www.w3.org/2000/svg" xmlns:xlink="http://www.w3.org/1999/xlink" x="0px" y="0px"
	 viewBox="0 0 141 19.5" style="enable-background:new 0 0 141 19.5;" xml:space="preserve">
<style type="text/css">
	.st0{fill:#FFFFFF;}
</style>
<g id="Capa_2_1_">
	<g id="Capa_2-2">
		<g id="marca">
			<path class="st0" d="M112.6,19.5c-0.5,0-0.9-0.1-1.3-0.3c-0.8-0.3-1.6-0.6-2.4-1c-0.3-0.2-0.6-0.3-0.9-0.5
				c-1.1-0.6-2.1-1.4-3-2.3l-0.3-0.3c-0.3-0.4-0.6-0.6-0.8-0.9c-1.3-1.6-2.2-3.6-2.5-5.6c-0.2-1.3-0.1-2.7,0.3-4
				c0.5-1.8,1.7-3.2,3.4-4c0.8-0.3,1.6-0.5,2.4-0.5c0.3,0,0.7,0,1,0.1c1.5,0.2,2.9,0.8,4.2,1.8c1.2-0.9,2.6-1.5,4.1-1.8
				c0.3,0,0.7-0.1,1-0.1c0.8,0,1.7,0.2,2.4,0.5c1.7,0.8,2.9,2.2,3.4,4c0.5,1.3,0.6,2.7,0.3,4.1c-0.3,2.1-1.2,4-2.5,5.6
				c-0.2,0.3-0.5,0.6-0.8,0.9l-0.3,0.3c-0.9,0.9-1.9,1.7-3,2.3c-0.3,0.2-0.6,0.3-0.9,0.5c-0.8,0.4-1.6,0.7-2.4,1
				C113.5,19.4,113,19.5,112.6,19.5z M107.4,0.8c-0.7,0-1.4,0.1-2.1,0.4c-1.4,0.7-2.5,2-3,3.5c-0.4,1.2-0.5,2.4-0.3,3.6
				c0.3,1.9,1.1,3.7,2.3,5.2c0.2,0.3,0.5,0.6,0.8,0.9l0.3,0.3c0.9,0.9,1.8,1.6,2.9,2.2c0.3,0.1,0.5,0.3,0.9,0.5
				c0.7,0.4,1.5,0.7,2.3,1c0.3,0.2,0.7,0.2,1.1,0.3c0.4,0,0.7-0.1,1.1-0.3c0.8-0.3,1.6-0.6,2.3-1c0.3-0.2,0.6-0.3,0.9-0.5
				c1-0.6,2-1.4,2.9-2.2l0.3-0.3c0.3-0.3,0.5-0.6,0.7-0.9c1.2-1.5,2.1-3.3,2.3-5.2l0,0c0.2-1.2,0.1-2.5-0.3-3.6
				c-0.5-1.5-1.6-2.8-3-3.5c-0.7-0.3-1.4-0.4-2.1-0.4c-0.3,0-0.6,0-0.9,0c-1.5,0.2-2.9,0.8-4,1.8l-0.3,0.2l-0.3-0.2
				c-1.1-1-2.5-1.6-4-1.8C108,0.8,107.7,0.8,107.4,0.8z"/>
			<path class="st0" d="M103.5,5.1c0.2-0.7,0.6-1.4,1.2-2c0.1-0.1,0.3-0.2,0.4-0.1c0.1,0.1,0.2,0.2,0.2,0.3s0,0.2-0.1,0.2
				c-0.8,0.9-1.3,2.1-1.2,3.3c0,0.2-0.1,0.4-0.3,0.4c-0.2,0-0.4-0.2-0.4-0.3l0,0C103.2,6.3,103.3,5.7,103.5,5.1z"/>
			<g id="LAZO">
				<path class="st0" d="M110.7,8.8c0,0.4,0,0.4-0.4,0.3c-0.9-0.2-1.8-0.5-2.7-0.7c-0.5-0.1-0.8-0.5-0.7-1c0-0.1,0.1-0.3,0.2-0.4
					c0.2-0.4,0.6-0.7,1-0.8c0.4-0.2,0.9,0,1.2,0.3c0.4,0.6,0.9,1.2,1.3,1.9C110.7,8.5,110.7,8.7,110.7,8.8z"/>
				<path class="st0" d="M112.4,9.4c-0.2,0.3-0.2,0.3,0.1,0.5l2.6,0.9c0.4,0.2,0.9,0.1,1.2-0.4c0.1-0.1,0.1-0.3,0.1-0.5
					c0-0.4-0.1-0.9-0.3-1.2c-0.2-0.4-0.7-0.5-1.1-0.4c-0.7,0.2-1.4,0.5-2.1,0.8C112.5,9.1,112.5,9.3,112.4,9.4z"/>
				<path class="st0" d="M110.8,8.8c-0.2,0.5-0.2,0.5-0.5,0.2c-0.9-0.6-1.8-1.2-2.6-1.8c-0.5-0.2-0.7-0.8-0.5-1.3
					c0.1-0.2,0.2-0.3,0.4-0.4C108,5.1,108.5,5,109,5s1,0.3,1.1,0.8c0.3,0.8,0.5,1.7,0.8,2.5C110.9,8.5,110.9,8.7,110.8,8.8z"/>
				<path class="st0" d="M116.9,9c0,0.5-0.3,0.9-0.8,0.9c-0.1,0-0.1,0-0.2,0c-1,0-2-0.1-3-0.1h-0.3c-0.5,0-0.5,0-0.3-0.5
					c0-0.2,0.2-0.4,0.4-0.5l1.9-1.4c0.4-0.4,1.1-0.4,1.5,0C116.6,7.8,116.9,8.4,116.9,9z"/>
				<path class="st0" d="M111.9,9.3c-0.1,0.3-0.2,0.3-0.5,0.2s-0.3-0.2-0.3-0.4s0.2-0.4,0.5-0.3S112,9,111.9,9.3z"/>
			</g>
			<path class="st0" d="M117.1,12.5l-0.5,1.6l-0.8-0.2l-1.3,4.6l-0.8,0.3c-0.4,0.2-0.8,0.3-1.2,0.3l0,0l1.6-5.7l-3.4-1.1l-1.7,5.5
				l-0.4-0.2l1.7-5.4l-3.5-1.1c0,0-1,2.9-1.4,4.2l-0.3-0.3l-0.3-0.3c-0.3-0.3-0.5-0.6-0.8-0.9l1.1-3.3l-0.8-0.2l0.5-1.6L117.1,12.5z
				"/>
			<path class="st0" d="M0,19.2v-1.1h0.3c0.3,0,0.6,0,0.8-0.1c0.2,0,0.5-0.1,0.7-0.3c0.2-0.1,0.4-0.3,0.5-0.6c0.1-0.3,0.2-0.7,0.2-1
				V3.3c0-0.3,0-0.6-0.2-0.9C2.2,2.2,2,2,1.8,1.8C1.6,1.7,1.4,1.6,1.2,1.6c-0.3,0-0.6-0.1-0.8-0.1H0V0.4h7.4c1,0,1.9,0.1,2.9,0.4
				c0.7,0.2,1.4,0.6,2,1.1c0.5,0.5,0.9,1.1,1.2,1.7c0.3,0.7,0.4,1.5,0.4,2.3s-0.1,1.5-0.4,2.2c-0.3,0.7-0.7,1.4-1.2,1.9
				c-0.6,0.6-1.4,1-2.2,1.3c-1.1,0.4-2.2,0.5-3.3,0.5H5.1v4.4c0,0.3,0,0.6,0.2,0.9c0.1,0.2,0.3,0.4,0.5,0.5C6,17.9,6.2,18,6.5,18
				s0.5,0.1,0.8,0.1h0.9v1.1H0z M5.1,10.6h1.4c0.7,0,1.3-0.1,2-0.2C9.1,10.3,9.6,10,10,9.6s0.6-0.9,0.8-1.4C11,7.4,11,6.7,11,6
				c0-0.6-0.1-1.3-0.2-1.9c-0.1-0.5-0.4-1-0.7-1.3C9.7,2.4,9.3,2.1,8.8,2C8.2,1.8,7.6,1.7,6.9,1.7H5.1V10.6z"/>
			<path class="st0" d="M32.8,9.8c0,1.4-0.2,2.7-0.5,4c-0.3,1.1-0.9,2.1-1.6,3s-1.6,1.5-2.6,2c-1.1,0.5-2.3,0.7-3.5,0.7
				s-2.5-0.2-3.6-0.7c-1-0.5-1.9-1.1-2.6-2s-1.2-1.9-1.5-3c-0.4-1.3-0.5-2.6-0.5-4s0.2-2.7,0.5-4c0.3-1.1,0.8-2.1,1.5-3
				c0.7-0.9,1.6-1.6,2.6-2c1.1-0.5,2.4-0.7,3.6-0.7s2.4,0.2,3.5,0.7c1,0.5,1.9,1.1,2.6,2s1.3,1.9,1.6,3C32.7,7.1,32.9,8.4,32.8,9.8z
				 M19.2,9.8c0,1.2,0.1,2.3,0.3,3.5c0.1,0.9,0.5,1.8,0.9,2.6c0.4,0.7,1,1.2,1.7,1.6c0.8,0.4,1.6,0.6,2.5,0.5c0.9,0,1.7-0.2,2.5-0.6
				c0.7-0.4,1.3-0.9,1.7-1.6c0.5-0.8,0.8-1.7,0.9-2.6c0.2-1.1,0.3-2.3,0.3-3.5s-0.1-2.3-0.3-3.5c-0.1-0.9-0.5-1.8-0.9-2.6
				c-0.4-0.7-1-1.2-1.6-1.6c-0.8-0.4-1.6-0.6-2.5-0.5c-0.9,0-1.7,0.2-2.5,0.5c-0.7,0.4-1.3,0.9-1.7,1.6c-0.5,0.8-0.8,1.7-0.9,2.6
				C19.3,7.4,19.2,8.6,19.2,9.8z"/>
			<path class="st0" d="M48.9,16c0.3,0.6,0.8,1.1,1.3,1.6c0.4,0.3,0.9,0.5,1.5,0.5h0.1v1.1h-0.4c-0.7,0-1.3,0-2-0.1
				c-0.5,0-0.9-0.2-1.4-0.4c-0.4-0.2-0.7-0.4-0.9-0.7c-0.3-0.4-0.6-0.8-0.8-1.2l-3.6-5.9h-2.2v5.4c0,0.3,0,0.6,0.2,0.9
				c0.1,0.2,0.3,0.4,0.5,0.5s0.4,0.2,0.7,0.2s0.6,0.1,0.8,0.1H43v1.1h-7.7V18h0.3c0.3,0,0.6,0,0.8-0.1c0.2,0,0.5-0.1,0.7-0.2
				s0.4-0.3,0.5-0.5c0.1-0.3,0.2-0.6,0.2-0.9v-13c0-0.3,0-0.6-0.2-0.9c-0.1-0.2-0.3-0.4-0.5-0.5s-0.4-0.2-0.7-0.2s-0.6-0.1-0.8-0.1
				h-0.3V0.4h7.1c1.8-0.1,3.6,0.3,5.1,1.3c1.1,0.9,1.8,2.3,1.7,3.8c0,0.6-0.1,1.3-0.3,1.8s-0.5,1-0.9,1.4s-0.8,0.7-1.2,1
				c-0.4,0.2-0.9,0.5-1.4,0.6L48.9,16z M40.5,9.7h1.8c0.6,0,1.3-0.1,1.9-0.2c0.5-0.1,0.9-0.4,1.2-0.8c0.3-0.4,0.5-0.8,0.7-1.3
				c0.1-0.6,0.2-1.2,0.2-1.8s-0.1-1.2-0.2-1.8c-0.1-0.5-0.4-0.9-0.7-1.2C45,2.3,44.6,2,44.1,1.9c-0.6-0.2-1.3-0.2-1.9-0.2h-1.8
				L40.5,9.7L40.5,9.7z"/>
			<path class="st0" d="M63.7,12.9l-1,2.8c-0.1,0.2-0.1,0.4-0.2,0.6c0,0.2-0.1,0.3-0.1,0.5c0,0.4,0.1,0.8,0.4,1
				c0.4,0.2,0.9,0.3,1.3,0.3h0.6v1.1h-6.4v-1.1h0.5c0.2,0,0.4,0,0.7-0.1c0.2-0.1,0.4-0.2,0.5-0.3c0.2-0.2,0.3-0.4,0.4-0.6
				c0.1-0.3,0.3-0.6,0.4-1l5.8-15.6h2l5.9,16.2c0.1,0.2,0.2,0.5,0.3,0.7c0.1,0.2,0.2,0.3,0.4,0.4c0.1,0.1,0.3,0.2,0.5,0.2
				c0.2,0.1,0.4,0.1,0.7,0.1h0.3v1.1h-7.2v-1.1h0.6c1,0,1.6-0.4,1.6-1.3c0-0.2,0-0.3-0.1-0.5c0-0.1-0.1-0.3-0.2-0.5l-1-2.9
				L63.7,12.9z M68.5,7c-0.3-0.8-0.5-1.5-0.8-2.2s-0.4-1.3-0.6-2C67,3.1,67,3.4,66.9,3.7s-0.2,0.6-0.3,0.9s-0.2,0.6-0.3,1
				S66.1,6.3,66,6.8l-1.8,4.8h5.9L68.5,7z"/>
			<path class="st0" d="M93.5,19.2v-1.1h0.1c0.3,0,0.5,0,0.8-0.1c0.2,0,0.4-0.1,0.6-0.2s0.3-0.3,0.4-0.5c0.1-0.3,0.2-0.6,0.2-0.9
				v-14l-6,16.8h-1.4L82,2.4v13.7c0,0.3,0,0.7,0.1,1c0.1,0.2,0.2,0.4,0.4,0.6c0.2,0.1,0.4,0.2,0.6,0.3c0.3,0.1,0.5,0.1,0.8,0.1H84
				v1.1h-6.1v-1.1h0.3c0.3,0,0.5,0,0.8-0.1c0.2,0,0.5-0.1,0.7-0.2s0.4-0.3,0.5-0.5c0.1-0.3,0.2-0.6,0.2-0.9v-13c0-0.3,0-0.6-0.2-0.9
				c-0.1-0.2-0.3-0.4-0.5-0.5c-0.2-0.1-0.4-0.2-0.7-0.2c-0.3,0-0.5-0.1-0.8-0.1h-0.3V0.4h6l5.4,15l5.4-15h5.8v1.1h-0.3
				c-0.3,0-0.6,0-0.8,0.1c-0.2,0-0.5,0.1-0.7,0.3c-0.2,0.1-0.4,0.3-0.5,0.6S98,3.2,98,3.5v12.8c0,0.3,0,0.7,0.2,1
				c0.1,0.2,0.3,0.4,0.5,0.6c0.2,0.1,0.4,0.2,0.7,0.3c0.3,0,0.6,0.1,0.8,0.1h0.3v1.1L93.5,19.2z"/>
			<path class="st0" d="M138.2,16c0.4,0.6,0.8,1.1,1.3,1.6c0.4,0.3,0.9,0.5,1.5,0.5h0.1v1.1h-0.4c-0.7,0-1.3,0-2-0.1
				c-0.5,0-0.9-0.2-1.3-0.3c-0.4-0.2-0.7-0.4-0.9-0.7c-0.3-0.4-0.6-0.8-0.8-1.2l-3.5-5.9H130v5.4c0,0.3,0,0.6,0.2,0.9
				c0.1,0.2,0.3,0.4,0.5,0.5s0.4,0.2,0.7,0.2s0.6,0.1,0.8,0.1h0.3v1.1h-7.6v-1.1h0.3c0.3,0,0.5,0,0.8-0.1c0.2,0,0.5-0.1,0.7-0.2
				s0.4-0.3,0.5-0.5c0.1-0.3,0.2-0.6,0.2-0.9v-13c0-0.3,0-0.6-0.2-0.9c-0.1-0.2-0.3-0.4-0.5-0.5c-0.2-0.1-0.4-0.2-0.7-0.2
				c-0.3,0-0.5-0.1-0.8-0.1h-0.3V0.4h7.1c1.8-0.1,3.6,0.3,5.1,1.3c1.1,0.9,1.8,2.3,1.7,3.8c0,0.6-0.1,1.3-0.3,1.8s-0.5,1-0.9,1.4
				s-0.8,0.7-1.2,1c-0.4,0.2-0.9,0.5-1.4,0.6L138.2,16z M129.8,9.7h1.9c0.6,0,1.3-0.1,1.9-0.2c0.5-0.1,0.9-0.4,1.2-0.8
				c0.3-0.4,0.5-0.8,0.7-1.3c0.1-0.6,0.2-1.2,0.2-1.8s-0.1-1.2-0.2-1.8c-0.1-0.5-0.4-0.9-0.7-1.2c-0.4-0.3-0.8-0.6-1.3-0.7
				c-0.6-0.2-1.3-0.2-1.9-0.2h-1.8L129.8,9.7z"/>
		</g>
	</g>
</g>
</svg>
