<?xml version="1.0" encoding="utf-8"?>
<!-- Generator: Adobe Illustrator 25.2.0, SVG Export Plug-In . SVG Version: 6.00 Build 0)  -->
<svg version="1.1" id="Capa_1" xmlns="http://www.w3.org/2000/svg" xmlns:xlink="http://www.w3.org/1999/xlink" x="0px" y="0px"
	 viewBox="0 0 26.1 28.8" style="enable-background:new 0 0 26.1 28.8;" xml:space="preserve">
<style type="text/css">
	.st0{fill-rule:evenodd;clip-rule:evenodd;fill:#F1BF7B;}
</style>
<g id="Capa_2_1_">
	<g id="Capa_2-2">
		<path class="st0" d="M13.1,2.1c-1.3,0-2.6,0.5-3.6,1.5C8.5,4.5,8,5.8,8,7.2v1h10v-1c0-1.3-0.5-2.7-1.4-3.6
			C15.7,2.6,14.4,2.1,13.1,2.1z M20,8.2v-1c0-1.9-0.7-3.7-2-5.1c-2.7-2.7-7-2.8-9.8-0.2c0,0.1-0.1,0.2-0.1,0.2C6.7,3.5,6,5.3,6,7.2
			v1H2c-0.5,0-1,0.2-1.4,0.6C0.2,9.2,0,9.7,0,10.3v13.9c0,2.5,2,4.6,4.5,4.6h17.1c2.5,0,4.5-2.1,4.5-4.5v-14c0-0.5-0.2-1.1-0.6-1.5
			s-0.9-0.6-1.4-0.6L20,8.2z M2,10.3v13.9c0,1.4,1.1,2.5,2.5,2.6h17.1c1.4,0,2.5-1.1,2.5-2.5v-14L2,10.3z"/>
		<path class="st0" d="M7.5,9.2c0.6,0.1,1,0.6,0.9,1.2v1.2c0,1.5,0.5,2.9,1.4,4.1c0.8,1,2,1.7,3.3,1.7s2.5-0.7,3.3-1.7
			c0.9-1.2,1.4-2.6,1.4-4.1v-1.2c-0.1-0.6,0.4-1.1,0.9-1.2c0.6,0.1,1,0.6,0.9,1.2v1.2c0,2.1-0.7,4.1-1.9,5.8
			c-1.1,1.5-2.8,2.3-4.6,2.4c-1.8,0-3.5-0.9-4.6-2.4c-1.3-1.7-1.9-3.7-1.9-5.8v-1.2C6.5,9.8,6.9,9.2,7.5,9.2z"/>
	</g>
</g>
</svg>
