<?xml version="1.0" encoding="utf-8"?>
<!-- Generator: Adobe Illustrator 25.2.0, SVG Export Plug-In . SVG Version: 6.00 Build 0)  -->
<svg version="1.1" id="WhatsApp" xmlns="http://www.w3.org/2000/svg" xmlns:xlink="http://www.w3.org/1999/xlink" x="0px" y="0px"
	 viewBox="0 0 32 32" style="enable-background:new 0 0 32 32;" xml:space="preserve">
<style type="text/css">
	.st0{fill:#F1BF7B;}
	.st1{fill:#262626;}
</style>
<path class="st0" d="M5,0h22c2.8,0,5,2.2,5,5v22c0,2.8-2.2,5-5,5H5c-2.8,0-5-2.2-5-5V5C0,2.2,2.2,0,5,0z"/>
<path class="st1" d="M16,6c5.5,0,10,4.5,10,10s-4.5,10-10,10c-1.8,0-3.5-0.5-5-1.3L6,26l1.3-5C4.6,16.2,6.2,10.1,11,7.3
	C12.5,6.5,14.2,6,16,6z M12.6,11.3h-0.2c-0.1,0-0.3,0-0.4,0.1c-0.1,0.1-0.2,0.1-0.3,0.2c-0.1,0.1-0.2,0.2-0.3,0.3
	c-0.4,0.5-0.6,1.1-0.6,1.7c0,0.5,0.1,1,0.3,1.4c0.5,1,1.2,2,2,2.7c0.2,0.2,0.4,0.4,0.6,0.6c1.1,1,2.4,1.7,3.8,2l0.6,0.1
	c0.2,0,0.4,0,0.6,0c0.3,0,0.6-0.1,0.8-0.2c0.1-0.1,0.3-0.1,0.4-0.2l0.1-0.1c0.1-0.1,0.2-0.2,0.3-0.3c0.1-0.1,0.2-0.2,0.2-0.3
	c0.1-0.2,0.2-0.5,0.2-0.7c0-0.1,0-0.3,0-0.4c0-0.1-0.1-0.2-0.2-0.3l-0.6-0.3l-1.4-0.6c-0.1,0-0.1,0-0.2,0c-0.1,0-0.1,0-0.2,0
	c-0.1,0-0.1,0.1-0.2,0.1c0,0-0.1,0.1-0.8,0.9c0,0.1-0.1,0.1-0.2,0.1c-0.1,0-0.1,0-0.2,0c-0.1,0-0.1,0-0.2-0.1l-0.2-0.1
	c-0.6-0.2-1.1-0.6-1.6-1l-0.4-0.4c-0.4-0.4-0.7-0.8-1-1.3l-0.1-0.1c0-0.1-0.1-0.1-0.1-0.2c0-0.1,0-0.2,0.1-0.3c0,0,0.2-0.3,0.4-0.4
	s0.2-0.3,0.3-0.4c0.1-0.2,0.1-0.4,0.1-0.5c-0.3-0.7-0.6-1.4-0.9-2c-0.1-0.1-0.2-0.2-0.4-0.2h-0.2L12.6,11.3L12.6,11.3z"/>
</svg>
